<svg xmlns="http://www.w3.org/2000/svg" width="35" height="24" fill="none"><path fill="#F1F5F4" d="M6.33 18.08q-1.36 0-2.289-.464a4.05 4.05 0 0 1-1.488-1.28 5.6 5.6 0 0 1-.816-1.84 8.7 8.7 0 0 1-.256-2.112V6.64h1.44v5.744a8.3 8.3 0 0 0 .16 1.632q.176.784.56 1.408t1.04.992 1.632.368q.992 0 1.648-.368a2.95 2.95 0 0 0 1.04-1.008q.385-.64.544-1.424a7.3 7.3 0 0 0 .176-1.6V6.64h1.44v5.744q0 1.152-.272 2.192a5.1 5.1 0 0 1-.832 1.808 4.1 4.1 0 0 1-1.504 1.248q-.912.448-2.224.448M16.706 6.64h1.216L22.563 18h-1.536l-1.344-3.328h-4.768L13.587 18H12.05zm2.656 6.912-2.048-5.248-2.112 5.248z"/><path fill="#F1F5F4" fill-rule="evenodd" d="M26.797 10.082a.28.28 0 0 0-.394 0l-.322.321a.28.28 0 0 0 0 .394l3.365 3.364a.3.3 0 0 0 .037.046l.322.322a.28.28 0 0 0 .393 0l3.72-3.72a.28.28 0 0 0 0-.394l-.321-.322a.28.28 0 0 0-.394 0l-3.197 3.198z" clip-rule="evenodd"/></svg>